HIERARCHY
ROOT Hips
{
	OFFSET 0.000000 0.000000 0.000000
	CHANNELS 6 Xposition Yposition Zposition Xrotation Yrotation Zrotation
	JOINT LeftUpLeg_virtual
	{
		OFFSET 0.000000 0.000000 0.000000
		CHANNELS 3 Xrotation Yrotation Zrotation
		JOINT LeftUpLeg
		{
			OFFSET 15.427100 -6.655098 0.678600
			CHANNELS 3 Xrotation Yrotation Zrotation
			JOINT LeftLeg
			{
				OFFSET 4.081073 -39.591068 13.024000
				CHANNELS 3 Xrotation Yrotation Zrotation
				JOINT LeftFoot
				{
					OFFSET -4.081074 -37.707932 -15.979700
					CHANNELS 3 Xrotation Yrotation Zrotation
					JOINT LeftToeBase
					{
						OFFSET 5.346399 -15.068900 20.645000
						CHANNELS 3 Xrotation Yrotation Zrotation
						JOINT LeftToe_End
						{
							OFFSET 2.754700 0.931300 11.300900
							CHANNELS 3 Xrotation Yrotation Zrotation
							End Site
							{
								OFFSET 0 0 0
							}
						}
					}
				}
			}
		}
	}
	JOINT RightUpLeg_virtual
	{
		OFFSET 0.000000 0.000000 0.000000
		CHANNELS 3 Xrotation Yrotation Zrotation
		JOINT RightUpLeg
		{
			OFFSET -15.569500 -6.655098 0.678600
			CHANNELS 3 Xrotation Yrotation Zrotation
			JOINT RightLeg
			{
				OFFSET -4.081825 -39.591045 13.023800
				CHANNELS 3 Xrotation Yrotation Zrotation
				JOINT RightFoot
				{
					OFFSET 4.081824 -37.707954 -15.979600
					CHANNELS 3 Xrotation Yrotation Zrotation
					JOINT RightToeBase
					{
						OFFSET -5.346400 -15.068900 20.645000
						CHANNELS 3 Xrotation Yrotation Zrotation
						JOINT RightToe_End
						{
							OFFSET -2.754700 0.931300 11.300900
							CHANNELS 3 Xrotation Yrotation Zrotation
							End Site
							{
								OFFSET 0 0 0
							}
						}
					}
				}
			}
		}
	}
	JOINT Spine_virtual
	{
		OFFSET 0.000000 0.000000 0.000000
		CHANNELS 3 Xrotation Yrotation Zrotation
		JOINT Spine
		{
			OFFSET -0.279200 12.230698 -2.892100
			CHANNELS 3 Xrotation Yrotation Zrotation
			JOINT Spine1
			{
				OFFSET -0.232667 10.192268 -1.242267
				CHANNELS 3 Xrotation Yrotation Zrotation
				JOINT Spine1_split
				{
					OFFSET -0.232667 10.192268 -1.242267
					CHANNELS 3 Xrotation Yrotation Zrotation
					JOINT Spine2
					{
						OFFSET -0.232667 10.192268 -1.242267
						CHANNELS 3 Xrotation Yrotation Zrotation
						JOINT Neck_virtual
						{
							OFFSET 0.000000 0.000000 0.000000
							CHANNELS 3 Xrotation Yrotation Zrotation
							JOINT Neck
							{
								OFFSET -0.418800 17.814194 8.416900
								CHANNELS 3 Xrotation Yrotation Zrotation
								JOINT Head
								{
									OFFSET 0.000000 7.031097 3.806800
									CHANNELS 3 Xrotation Yrotation Zrotation
									JOINT HeadTop_End
									{
										OFFSET 0.000000 24.646606 12.978600
										CHANNELS 3 Xrotation Yrotation Zrotation
										End Site
										{
											OFFSET 0 0 0
										}
									}
								}
							}
						}
						JOINT LeftShoulder_virtual
						{
							OFFSET 0.000000 0.000000 0.000000
							CHANNELS 3 Xrotation Yrotation Zrotation
							JOINT LeftShoulder
							{
								OFFSET 8.476499 7.247704 -3.868750
								CHANNELS 3 Xrotation Yrotation Zrotation
								JOINT LeftShoulder_split
								{
									OFFSET 8.476499 7.247704 -3.868750
									CHANNELS 3 Xrotation Yrotation Zrotation
									JOINT LeftArm
									{
										OFFSET 9.308998 -2.777710 0.208600
										CHANNELS 3 Xrotation Yrotation Zrotation
										JOINT LeftForeArm
										{
											OFFSET 29.972298 0.000000 0.000000
											CHANNELS 3 Xrotation Yrotation Zrotation
											JOINT LeftHand
											{
												OFFSET 26.026505 0.000000 0.000000
												CHANNELS 3 Xrotation Yrotation Zrotation
												End Site
												{
													OFFSET 0 0 0
												}
											}
										}
									}
								}
							}
						}
						JOINT RightShoulder_virtual
						{
							OFFSET 0.000000 0.000000 0.000000
							CHANNELS 3 Xrotation Yrotation Zrotation
							JOINT RightShoulder
							{
								OFFSET -7.570500 7.247704 -3.868750
								CHANNELS 3 Xrotation Yrotation Zrotation
								JOINT RightShoulder_split
								{
									OFFSET -7.570500 7.247704 -3.868750
									CHANNELS 3 Xrotation Yrotation Zrotation
									JOINT RightArm
									{
										OFFSET -9.308998 -2.777710 0.208500
										CHANNELS 3 Xrotation Yrotation Zrotation
										JOINT RightForeArm
										{
											OFFSET -29.972300 0.000000 0.000000
											CHANNELS 3 Xrotation Yrotation Zrotation
											JOINT RightHand
											{
												OFFSET -26.026505 0.000000 0.000000
												CHANNELS 3 Xrotation Yrotation Zrotation
												End Site
												{
													OFFSET 0 0 0
												}
											}
										}
									}
								}
							}
						}
					}
				}
			}
		}
	}
}
MOTION
Frames: 7
Frame Time: 0.03333333
-23.747831 131.750763 31.846895 0.000000 0.000000 0.000000 6.316849 -17.122055 1.024048 -15.487864 6.066914 6.660384 26.202995 11.795868 7.368779 22.810414 -2.118364 0.740617 3.708346 0.972196 0.678066 0.000000 0.000000 0.000000 6.109567 -17.154648 0.351024 -2.552706 -3.594484 -2.986873 12.516854 -14.144015 2.409782 28.695042 -1.896195 -5.142140 17.979057 -2.916204 1.262112 0.000000 0.000000 0.000000 6.118781 -15.987328 0.456931 -0.007124 4.223189 4.424757 -5.227378 1.258176 -1.628099 2.214109 -2.449548 0.422581 0.000000 0.000000 0.000000 -0.788770 1.295690 -2.387025 -27.886686 2.224837 -0.388150 -7.173442 3.409898 4.239159 0.000000 0.000000 0.000000 -3.894295 1.311081 -1.879618 4.304676 -3.162508 22.227351 4.338026 6.460874 0.867025 -56.653130 -25.356574 23.483143 -23.854427 -46.593071 9.659732 0.000000 0.000000 0.000000 -3.553477 0.862311 -1.437617 -4.826105 -11.846232 -26.414063 -0.776358 -2.247500 -2.156711 -84.925821 34.754465 33.851056 -31.394278 43.765151 -4.147246 0.000000 0.000000 0.000000 
-24.171097 128.469543 32.878487 0.000000 0.000000 0.000000 5.096003 -15.734034 0.295779 -18.019629 7.621959 7.683288 28.587893 11.963007 6.448722 29.887446 -2.329727 2.654819 5.198036 1.100391 0.502109 0.000000 0.000000 0.000000 5.471942 -13.906982 -0.389874 -3.784513 -5.731037 -5.835880 17.323402 -11.739987 3.433297 34.938573 1.077496 -2.334861 15.709502 -1.385244 0.497990 0.000000 0.000000 0.000000 4.340978 -13.885422 -0.323875 0.529425 4.462511 4.618769 -5.544504 1.147142 -1.291210 2.619556 -2.901506 0.758359 0.000000 0.000000 0.000000 -1.627242 1.230132 -1.873082 -27.462049 1.478180 -1.329864 -7.698906 1.887297 4.333719 0.000000 0.000000 0.000000 -4.462855 1.153231 -1.452356 5.143272 -2.144218 24.448654 3.491444 4.865197 1.879639 -52.403288 -19.569293 19.463783 -20.350646 -50.786056 11.877544 0.000000 0.000000 0.000000 -4.267434 0.818893 -0.968817 -2.617044 -9.907970 -24.160700 -1.581341 -2.933336 -2.019588 -79.939079 39.353306 31.689380 -30.569837 39.599589 -0.159887 0.000000 0.000000 0.000000 
-24.515965 125.122543 34.037529 0.000000 0.000000 0.000000 3.956679 -14.433091 -0.344689 -20.302855 8.703240 8.391044 30.178115 12.137025 5.794905 35.105656 -2.153846 5.572335 6.816760 1.151768 0.081400 0.000000 0.000000 0.000000 4.897235 -10.639011 -0.905033 -4.189344 -6.339691 -7.312804 20.051974 -9.780973 3.510656 40.154467 3.304420 0.358112 12.888202 0.000310 0.294250 0.000000 0.000000 0.000000 2.548987 -12.161406 -0.872549 0.925761 4.527615 4.633064 -5.911097 0.995191 -0.862503 2.479273 -3.082242 0.743707 0.000000 0.000000 0.000000 -2.719371 1.147920 -1.280909 -26.788670 1.191127 -2.479735 -7.549827 0.461905 4.310973 0.000000 0.000000 0.000000 -5.042259 0.983882 -0.949862 5.491292 -0.045850 27.289898 2.435608 2.987227 2.547978 -49.680446 -16.792541 14.387080 -19.311709 -51.009656 12.281130 0.000000 0.000000 0.000000 -5.253355 0.755839 -0.415740 -0.692175 -7.301237 -23.878194 -1.816558 -3.193418 -1.578280 -75.571986 41.290447 28.503322 -29.416696 34.126473 2.493288 0.000000 0.000000 0.000000 
-24.821232 122.464783 35.514832 0.000000 0.000000 0.000000 3.048517 -13.258900 -0.853209 -21.427900 9.034009 8.318571 30.967917 12.631252 5.725311 37.539645 -1.298839 8.755748 8.558408 1.203072 -0.681352 0.000000 0.000000 0.000000 4.399173 -7.851126 -1.169404 -3.528406 -5.846939 -7.104189 20.241836 -9.251675 3.037746 42.821123 3.278275 1.243943 12.622445 1.029615 0.884286 0.000000 0.000000 0.000000 1.135384 -10.875958 -1.138326 1.032488 4.467228 4.521132 -6.359868 0.851922 -0.434997 1.810585 -2.773088 0.450417 0.000000 0.000000 0.000000 -3.926335 1.067912 -0.736284 -25.735104 1.053033 -3.687027 -6.786584 -0.672752 4.177774 0.000000 0.000000 0.000000 -5.651737 0.855116 -0.499076 5.448915 2.389754 30.381617 1.597335 1.377217 2.886559 -49.074697 -17.030822 9.588059 -21.095263 -47.585402 10.578919 0.000000 0.000000 0.000000 -6.370566 0.724500 0.111782 0.838726 -4.673869 -25.562765 -1.658402 -2.741599 -0.885096 -73.690733 40.860654 25.991305 -28.072634 28.650673 3.850427 0.000000 0.000000 0.000000 
-25.008087 120.829575 37.367805 0.000000 0.000000 0.000000 2.457766 -12.299749 -1.195258 -21.054434 8.706181 7.683924 31.116720 13.308009 6.215051 38.004354 -0.170963 10.854065 9.656717 1.275316 -1.551001 0.000000 0.000000 0.000000 3.795954 -5.939477 -1.247532 -2.260335 -4.820307 -5.680394 18.846889 -9.966938 2.221843 43.275942 1.331072 0.896473 13.098816 1.589564 1.744693 0.000000 0.000000 0.000000 0.236194 -9.998931 -1.092788 0.775711 4.294137 4.323660 -6.899659 0.740122 -0.130917 1.189717 -2.263007 0.065614 0.000000 0.000000 0.000000 -5.111968 0.968663 -0.343843 -24.298531 0.807180 -4.773571 -5.516574 -1.410188 3.957610 0.000000 0.000000 0.000000 -6.287047 0.811963 -0.252079 5.229115 4.508908 33.209080 1.258498 0.157993 2.720161 -50.590142 -19.847101 5.493724 -24.104702 -41.933888 8.033220 0.000000 0.000000 0.000000 -7.332269 0.751563 0.490859 1.965907 -2.660038 -28.736013 -1.462768 -1.757256 0.211232 -74.411735 39.033694 24.778528 -26.735935 24.480300 4.244297 0.000000 0.000000 0.000000 
-25.225224 120.093231 39.593475 0.000000 0.000000 0.000000 1.818886 -11.340021 -1.275794 -19.686608 8.227152 6.790162 30.673249 13.961497 6.975600 37.539679 0.608823 11.396639 9.355335 1.411771 -2.071622 0.000000 0.000000 0.000000 2.977094 -4.955909 -1.131009 -1.286750 -3.995278 -4.058433 17.923338 -11.137341 1.755915 43.808031 -0.937826 0.839167 11.197812 1.672776 2.335229 0.000000 0.000000 0.000000 -0.201955 -9.243156 -0.782499 0.278325 4.045948 4.088398 -7.493501 0.650277 0.013481 0.569556 -1.623501 -0.140172 0.000000 0.000000 0.000000 -6.181963 0.855704 -0.168313 -22.492207 0.415722 -5.582449 -3.886014 -1.737964 3.686656 0.000000 0.000000 0.000000 -6.931149 0.845868 -0.249134 5.068732 5.932673 35.306129 1.493286 -0.372969 2.074930 -53.260818 -23.792826 2.294530 -26.841890 -35.975942 5.786270 0.000000 0.000000 0.000000 -8.049033 0.845979 0.656026 2.648669 -1.541055 -32.561926 -1.156811 -0.328994 1.371226 -76.480954 36.647455 24.543504 -25.599274 22.579668 4.072054 0.000000 0.000000 0.000000 
-25.573488 120.024231 41.837036 0.000000 0.000000 0.000000 1.034372 -10.457291 -1.104174 -17.851966 8.471073 6.028036 29.889632 14.507061 7.638842 36.824856 0.899266 10.762108 8.141784 1.546650 -2.008693 0.000000 0.000000 0.000000 1.865990 -4.461991 -0.797055 -0.877115 -3.780984 -3.131375 17.728804 -11.522657 1.852803 45.162430 -1.430286 2.372399 7.026609 1.417558 2.291583 0.000000 0.000000 0.000000 -0.420739 -8.451554 -0.290742 -0.319833 3.734692 3.889391 -8.101749 0.565569 -0.010899 0.445695 -0.916123 -0.088934 0.000000 0.000000 0.000000 -7.072994 0.744158 -0.204318 -20.599342 -0.080568 -6.093490 -2.181713 -1.604341 3.338575 0.000000 0.000000 0.000000 -7.573746 0.927824 -0.471283 5.169396 6.520548 36.425956 2.681267 -0.229836 1.209732 -56.003129 -27.630634 -0.118884 -28.648938 -31.435959 4.145127 0.000000 0.000000 0.000000 -8.475643 0.989980 0.604307 2.989851 -1.225174 -36.113509 -0.825980 1.159105 2.422045 -78.286986 34.332328 24.795263 -24.612119 22.948722 3.630520 0.000000 0.000000 0.000000 
